<svg version="1.1" xmlns="http://www.w3.org/2000/svg" viewBox="0 0 358.91974963758094 344.88361315325096" width="358.91974963758094" height="344.88361315325096" class="excalidraw-svg"><!-- svg-source:excalidraw --><metadata></metadata><defs><style class="style-fonts">
      </style></defs><g stroke-linecap="round"><g transform="translate(10.692850476984404 35.59015391860794) rotate(0 65.1991041357642 0.24430067315699944)"><path d="M0.59 1.02 C22.27 0.99, 109.36 -0.23, 130.95 -0.53 M-0.55 0.51 C20.94 0.67, 108.7 0.79, 130.34 0.73" stroke="#d3d3d3" stroke-width="2" fill="none"></path></g></g><mask></mask><g stroke-linecap="round"><g transform="translate(142.61409027923116 35.59015391860794) rotate(0 -0.054467900739979314 148.49915925598555)"><path d="M-0.06 0.34 C-0.35 49.8, -0.79 246.54, -0.83 296 M-1.55 -0.53 C-1.53 49.2, 1.39 248.22, 1.44 297.53" stroke="#d3d3d3" stroke-width="2" fill="none"></path></g></g><mask></mask><g stroke-linecap="round"><g transform="translate(10.79581970945003 38.70477590083124) rotate(0 0.35963550781892195 144.964772717679)"><path d="M0.88 -0.23 C0.79 48.05, -0.59 241.67, -0.8 290.12 M-0.12 -1.4 C0.19 47, 1.69 242.5, 1.5 291.33" stroke="#d3d3d3" stroke-width="2" fill="none"></path></g></g><mask></mask><g stroke-linecap="round" transform="translate(13.640246106382335 38.21586934648212) rotate(0 63.84975063557752 148.33387190338442)"><path d="M7.84 8.14 C7.84 8.14, 7.84 8.14, 7.84 8.14 M7.84 8.14 C7.84 8.14, 7.84 8.14, 7.84 8.14 M1.41 27.73 C7.88 22.57, 13.45 12.82, 24.38 1.31 M1.41 27.73 C7.28 19.88, 14.53 12.72, 24.38 1.31 M0.89 40.53 C12.75 24.52, 30.63 7.87, 36.32 -0.23 M0.89 40.53 C9.14 29.39, 20.27 19.87, 36.32 -0.23 M1.02 52.57 C14.18 35.23, 31.31 17.87, 46.29 0.49 M1.02 52.57 C10.4 39.84, 22.4 28.31, 46.29 0.49 M1.16 64.61 C20.17 41.03, 38.7 19.04, 56.92 0.46 M1.16 64.61 C14.33 49.64, 27.12 36.32, 56.92 0.46 M1.29 76.65 C20.24 54.36, 39.88 32.61, 67.55 0.42 M1.29 76.65 C18.13 59.21, 33.74 39.99, 67.55 0.42 M0.77 89.44 C19.29 69.19, 36.05 50.94, 78.18 0.39 M0.77 89.44 C21.89 64.28, 44.03 40.32, 78.18 0.39 M0.9 101.48 C32.46 66.19, 64.43 26.61, 88.81 0.35 M0.9 101.48 C22.54 75.62, 45.49 50.76, 88.81 0.35 M1.03 113.53 C28.49 85.56, 52 53.99, 99.44 0.32 M1.03 113.53 C32.59 78.32, 63.9 39.81, 99.44 0.32 M1.17 125.57 C40.72 80.87, 81.89 31.85, 108.1 2.55 M1.17 125.57 C36.95 85.88, 71.15 46.64, 108.1 2.55 M0.64 138.36 C41.39 90.03, 82.16 46.39, 116.11 5.53 M0.64 138.36 C28.26 105.28, 58.11 73.29, 116.11 5.53 M0.78 150.4 C47.53 95.94, 97.28 42.79, 122.15 10.78 M0.78 150.4 C29.57 118.64, 57.83 87.56, 122.15 10.78 M0.91 162.44 C26.83 133.73, 54.09 105.23, 126.22 18.29 M0.91 162.44 C42.52 116.95, 82.85 69.56, 126.22 18.29 M1.04 174.48 C45.42 122.93, 89.98 72.44, 127.66 28.83 M1.04 174.48 C32.56 141.52, 61.98 106.88, 127.66 28.83 M0.52 187.28 C50.08 128.08, 102.19 69.79, 128.45 40.11 M0.52 187.28 C33.12 148.4, 66.59 110.65, 128.45 40.11 M0.65 199.32 C28.23 169.04, 51.97 138.58, 128.59 52.15 M0.65 199.32 C41.47 155.16, 79.85 108.82, 128.59 52.15 M0.79 211.36 C46.73 157.04, 92.01 104.29, 128.72 64.19 M0.79 211.36 C47.21 158.02, 94.72 105.12, 128.72 64.19 M0.92 223.4 C29.38 192.81, 56.39 158.16, 128.2 76.99 M0.92 223.4 C42.45 175.7, 84.06 127.69, 128.2 76.99 M0.4 236.2 C46.77 183.18, 91.61 131.46, 128.33 89.03 M0.4 236.2 C40.19 187.54, 81.92 141.31, 128.33 89.03 M0.53 248.24 C25.39 218.71, 51.45 186.88, 128.46 101.07 M0.53 248.24 C37.01 209.5, 71.38 169.11, 128.46 101.07 M0.66 260.28 C36.47 216.22, 73.64 175.82, 128.6 113.11 M0.66 260.28 C31.46 224.59, 62.59 188.1, 128.6 113.11 M1.45 271.57 C45.99 221.63, 87.37 175.58, 128.73 125.15 M1.45 271.57 C29.82 238.36, 56.18 207.99, 128.73 125.15 M3.55 281.34 C49.58 230.66, 90.65 181.61, 128.21 137.95 M3.55 281.34 C32.6 248.6, 61.89 213.62, 128.21 137.95 M8.28 288.1 C43.79 248.62, 80.4 204.98, 128.34 149.99 M8.28 288.1 C52.04 237.63, 94.15 188.18, 128.34 149.99 M14.97 292.59 C49.48 249.69, 89.52 207.85, 128.47 162.03 M14.97 292.59 C38.48 264.82, 62.23 237.68, 128.47 162.03 M22.98 295.58 C61.12 250.66, 100.11 205.63, 128.6 174.07 M22.98 295.58 C63.01 251.1, 100.54 207.88, 128.6 174.07 M32.95 296.3 C59 265.84, 85.04 237.33, 128.08 186.87 M32.95 296.3 C59.37 267.05, 86.68 235.68, 128.08 186.87 M43.58 296.26 C74.75 263.46, 103.18 228.21, 128.22 198.91 M43.58 296.26 C65.09 272.02, 85.35 248.26, 128.22 198.91 M53.56 296.98 C74.35 271.6, 97.78 244.01, 128.35 210.95 M53.56 296.98 C81.15 266.09, 108.12 235.26, 128.35 210.95 M64.19 296.95 C90.25 266.75, 112.95 239.53, 128.48 222.99 M64.19 296.95 C81.07 276.7, 99.14 255.66, 128.48 222.99 M74.82 296.92 C93.23 273.97, 113.53 251.35, 128.61 235.03 M74.82 296.92 C94.48 274.38, 114.96 250.12, 128.61 235.03 M85.45 296.88 C100.83 275.8, 119.97 258.36, 128.09 247.82 M85.45 296.88 C97.11 282.84, 107.97 270.99, 128.09 247.82 M96.08 296.85 C102.93 289.18, 112.37 279.58, 128.22 259.87 M96.08 296.85 C102.47 287.09, 111.72 279.99, 128.22 259.87 M108.02 295.3 C117.52 286.13, 123.09 275.34, 127.7 272.66 M108.02 295.3 C114.71 287.13, 120.38 281.46, 127.7 272.66" stroke="#d3d3d3" stroke-width="1" fill="none"></path><path d="M31.92 0 C48.57 2.37, 66.51 1.76, 95.77 0 M31.92 0 C44.77 0.01, 58.76 1.32, 95.77 0 M95.77 0 C115.08 -1.18, 126.07 8.95, 127.7 31.92 M95.77 0 C116.87 -1.71, 129.59 12.74, 127.7 31.92 M127.7 31.92 C129.45 115.13, 130.01 201.89, 127.7 264.74 M127.7 31.92 C126.97 93.38, 126.92 155.82, 127.7 264.74 M127.7 264.74 C128.31 284.32, 118.02 295.87, 95.77 296.67 M127.7 264.74 C129.04 286.84, 115.2 296.05, 95.77 296.67 M95.77 296.67 C82.92 296.71, 66.09 297, 31.92 296.67 M95.77 296.67 C78.38 296.08, 59.36 295.62, 31.92 296.67 M31.92 296.67 C11.5 295.41, -1.99 287.42, 0 264.74 M31.92 296.67 C9.77 295.63, 0.56 285.93, 0 264.74 M0 264.74 C-2.21 180.63, -2.49 97.7, 0 31.92 M0 264.74 C0.43 182.73, 1.25 101.8, 0 31.92 M0 31.92 C1 10.36, 10.73 -1.21, 31.92 0 M0 31.92 C-1.65 8.75, 10.69 -1.19, 31.92 0" stroke="#ededed00" stroke-width="2" fill="none"></path></g><g stroke-linecap="round" transform="translate(134.87869902418993 9.999999999999886) rotate(0 6.446181475479364 6.123872401705455)"><path d="M6.52 -0.17 C7.84 -0.4, 9.43 0.1, 10.52 1.02 C11.62 1.95, 12.89 4.02, 13.08 5.37 C13.28 6.73, 12.39 7.98, 11.68 9.15 C10.97 10.31, 10.12 11.85, 8.82 12.35 C7.53 12.86, 5.14 12.72, 3.9 12.18 C2.66 11.64, 2.05 10.23, 1.37 9.12 C0.68 8, -0.33 6.78, -0.23 5.5 C-0.12 4.22, 0.9 2.27, 1.99 1.43 C3.09 0.6, 5.54 0.7, 6.35 0.47 C7.16 0.23, 6.78 0.01, 6.86 0.01 M6.72 0.52 C7.99 0.47, 9.83 0.91, 10.93 1.72 C12.02 2.54, 13.19 4.09, 13.3 5.43 C13.41 6.77, 12.25 8.76, 11.57 9.76 C10.89 10.77, 10.46 10.96, 9.19 11.44 C7.93 11.91, 5.49 12.95, 3.98 12.62 C2.47 12.28, 0.7 10.63, 0.16 9.45 C-0.39 8.27, 0.25 6.98, 0.71 5.54 C1.17 4.11, 1.95 1.82, 2.91 0.82 C3.87 -0.17, 5.93 -0.42, 6.48 -0.41 C7.02 -0.41, 6.18 0.78, 6.16 0.86" stroke="none" stroke-width="0" fill="#d3d3d3"></path><path d="M4.95 0.42 C6.29 0.06, 8.25 0.37, 9.48 0.86 C10.71 1.34, 11.82 2.22, 12.32 3.34 C12.81 4.46, 12.89 6.33, 12.45 7.58 C12.01 8.83, 10.81 10.03, 9.69 10.84 C8.56 11.64, 7.08 12.4, 5.7 12.39 C4.32 12.38, 2.35 11.74, 1.41 10.77 C0.47 9.81, 0.08 7.95, 0.06 6.58 C0.04 5.21, 0.47 3.61, 1.28 2.56 C2.08 1.51, 4.24 0.61, 4.86 0.29 C5.49 -0.03, 5.04 0.62, 5.05 0.64 M5.78 -0.05 C6.93 -0.26, 8.47 0.69, 9.51 1.54 C10.55 2.39, 11.6 3.82, 12.02 5.06 C12.44 6.29, 12.43 7.89, 12.03 8.96 C11.64 10.04, 10.73 11.07, 9.66 11.5 C8.59 11.93, 7 11.93, 5.62 11.56 C4.23 11.19, 2.23 10.2, 1.35 9.29 C0.48 8.38, 0.22 7.47, 0.38 6.13 C0.53 4.79, 1.3 2.34, 2.28 1.26 C3.25 0.19, 5.53 -0.09, 6.22 -0.31 C6.91 -0.53, 6.57 -0.17, 6.42 -0.08" stroke="#d3d3d3" stroke-width="2" fill="none"></path></g><g stroke-linecap="round"><g transform="translate(153.75501793889958 16.739269016727462) rotate(0 97.0218103603519 35.47812489141643)"><path d="M-1.12 0.45 C14.05 1.8, 57.86 -2.9, 90.58 8.77 C123.29 20.43, 177.88 60.07, 195.16 70.43 M0.49 -0.36 C16.08 1.08, 60.56 -1.96, 92.88 9.98 C125.2 21.93, 177.54 61, 194.41 71.31" stroke="#d3d3d3" stroke-width="2" fill="none"></path></g><g transform="translate(153.75501793889958 16.739269016727462) rotate(0 97.0218103603519 35.47812489141643)"><path d="M170.13 65.38 C177.32 65.88, 181.95 68.78, 194.41 71.31 M170.13 65.38 C174.92 65.84, 181.94 68.12, 194.41 71.31" stroke="#d3d3d3" stroke-width="2" fill="none"></path></g><g transform="translate(153.75501793889958 16.739269016727462) rotate(0 97.0218103603519 35.47812489141643)"><path d="M179.63 51.15 C184.4 55.32, 186.52 61.97, 194.41 71.31 M179.63 51.15 C182.13 54.87, 186.96 60.44, 194.41 71.31" stroke="#d3d3d3" stroke-width="2" fill="none"></path></g></g><mask></mask></svg>